<mxfile host="www.draw.io" modified="2019-10-21T12:19:16.553Z" agent="Mozilla/5.0 (Windows NT 10.0; Win64; x64; rv:69.0) Gecko/20100101 Firefox/69.0" etag="ELGhAg_vIO-IzgS17rv3" version="12.1.3" type="github" pages="7">
  <diagram id="2Yey8G1qUkvAdq2EXQSQ" name="第 1 页">
    <mxGraphModel dx="1360" dy="809" grid="1" gridSize="10" guides="1" tooltips="1" connect="1" arrows="1" fold="1" page="1" pageScale="1" pageWidth="2339" pageHeight="3300" math="0" shadow="0">
      <root>
        <mxCell id="0"/>
        <mxCell id="1" parent="0"/>
        <mxCell id="13L3IfXqPYc7VZr8CJZo-10" value="业务中台" style="outlineConnect=0;gradientColor=none;html=1;whiteSpace=wrap;fontSize=12;fontStyle=0;shape=mxgraph.aws4.group;grIcon=mxgraph.aws4.group_spot_fleet;strokeColor=#232F3E;fillColor=none;verticalAlign=top;align=left;spacingLeft=30;fontColor=#232F3E;dashed=0;" parent="1" vertex="1">
          <mxGeometry x="355" y="190" width="825" height="480" as="geometry"/>
        </mxCell>
        <mxCell id="13L3IfXqPYc7VZr8CJZo-28" value="" style="endArrow=classic;html=1;strokeColor=#EE472A;strokeWidth=6;exitX=0.5;exitY=1;exitDx=0;exitDy=0;exitPerimeter=0;entryX=0.5;entryY=0;entryDx=0;entryDy=0;" parent="1" source="13L3IfXqPYc7VZr8CJZo-1" target="13L3IfXqPYc7VZr8CJZo-11" edge="1">
          <mxGeometry width="50" height="50" relative="1" as="geometry">
            <mxPoint x="500" y="400" as="sourcePoint"/>
            <mxPoint x="550" y="350" as="targetPoint"/>
          </mxGeometry>
        </mxCell>
        <mxCell id="13L3IfXqPYc7VZr8CJZo-30" value="" style="endArrow=classic;html=1;strokeColor=#EE472A;strokeWidth=6;exitX=0.5;exitY=1;exitDx=0;exitDy=0;exitPerimeter=0;entryX=0.5;entryY=0;entryDx=0;entryDy=0;" parent="1" source="13L3IfXqPYc7VZr8CJZo-29" target="13L3IfXqPYc7VZr8CJZo-11" edge="1">
          <mxGeometry width="50" height="50" relative="1" as="geometry">
            <mxPoint x="468.25" y="363" as="sourcePoint"/>
            <mxPoint x="790" y="460" as="targetPoint"/>
          </mxGeometry>
        </mxCell>
        <mxCell id="13L3IfXqPYc7VZr8CJZo-31" value="同构系统直调不走网关" style="text;html=1;resizable=0;points=[];align=center;verticalAlign=middle;labelBackgroundColor=#ffffff;" parent="13L3IfXqPYc7VZr8CJZo-30" vertex="1" connectable="0">
          <mxGeometry x="-0.3506" relative="1" as="geometry">
            <mxPoint as="offset"/>
          </mxGeometry>
        </mxCell>
        <mxCell id="13L3IfXqPYc7VZr8CJZo-16" value="业务前台" style="outlineConnect=0;gradientColor=none;html=1;whiteSpace=wrap;fontSize=12;fontStyle=0;shape=mxgraph.aws4.group;grIcon=mxgraph.aws4.group_spot_fleet;strokeColor=#232F3E;fillColor=none;verticalAlign=top;align=left;spacingLeft=30;fontColor=#232F3E;dashed=0;" parent="1" vertex="1">
          <mxGeometry x="355" y="20" width="825" height="160" as="geometry"/>
        </mxCell>
        <mxCell id="13L3IfXqPYc7VZr8CJZo-27" value="" style="endArrow=classic;html=1;strokeColor=#D9A741;strokeWidth=6;exitX=0.5;exitY=1;exitDx=0;exitDy=0;exitPerimeter=0;entryX=0.5;entryY=0;entryDx=0;entryDy=0;entryPerimeter=0;" parent="1" source="13L3IfXqPYc7VZr8CJZo-17" target="13L3IfXqPYc7VZr8CJZo-1" edge="1">
          <mxGeometry width="50" height="50" relative="1" as="geometry">
            <mxPoint x="512.5" y="230" as="sourcePoint"/>
            <mxPoint x="512.5" y="250.71067811865476" as="targetPoint"/>
          </mxGeometry>
        </mxCell>
        <mxCell id="13L3IfXqPYc7VZr8CJZo-32" value="&lt;div&gt;异构系统走网关转发&lt;/div&gt;&lt;div&gt;OAuth2&lt;br&gt;&lt;/div&gt;" style="text;html=1;resizable=0;points=[];align=center;verticalAlign=middle;labelBackgroundColor=#ffffff;" parent="13L3IfXqPYc7VZr8CJZo-27" vertex="1" connectable="0">
          <mxGeometry x="-0.4602" y="1" relative="1" as="geometry">
            <mxPoint as="offset"/>
          </mxGeometry>
        </mxCell>
        <mxCell id="13L3IfXqPYc7VZr8CJZo-11" value="核心前置系统" style="outlineConnect=0;gradientColor=none;html=1;whiteSpace=wrap;fontSize=12;fontStyle=0;strokeColor=#879196;fillColor=none;verticalAlign=top;align=center;fontColor=#879196;dashed=1;spacingTop=3;" parent="1" vertex="1">
          <mxGeometry x="410" y="450" width="740" height="167" as="geometry"/>
        </mxCell>
        <mxCell id="13L3IfXqPYc7VZr8CJZo-23" value="" style="endArrow=classic;html=1;entryX=0.5;entryY=0;entryDx=0;entryDy=0;entryPerimeter=0;strokeColor=#AD688B;strokeWidth=6;" parent="1" source="13L3IfXqPYc7VZr8CJZo-12" target="13L3IfXqPYc7VZr8CJZo-13" edge="1">
          <mxGeometry width="50" height="50" relative="1" as="geometry">
            <mxPoint x="480" y="630" as="sourcePoint"/>
            <mxPoint x="530" y="580" as="targetPoint"/>
          </mxGeometry>
        </mxCell>
        <mxCell id="13L3IfXqPYc7VZr8CJZo-24" value="" style="endArrow=classic;html=1;strokeColor=#AD688B;strokeWidth=6;exitX=0.5;exitY=1;exitDx=0;exitDy=0;exitPerimeter=0;" parent="1" source="13L3IfXqPYc7VZr8CJZo-2" edge="1">
          <mxGeometry width="50" height="50" relative="1" as="geometry">
            <mxPoint x="527.8117977528091" y="574" as="sourcePoint"/>
            <mxPoint x="520" y="700" as="targetPoint"/>
          </mxGeometry>
        </mxCell>
        <mxCell id="13L3IfXqPYc7VZr8CJZo-25" value="" style="endArrow=classic;html=1;strokeColor=#AD688B;strokeWidth=6;exitX=0.5;exitY=1;exitDx=0;exitDy=0;exitPerimeter=0;entryX=0.5;entryY=0;entryDx=0;entryDy=0;entryPerimeter=0;" parent="1" source="13L3IfXqPYc7VZr8CJZo-20" target="13L3IfXqPYc7VZr8CJZo-13" edge="1">
          <mxGeometry width="50" height="50" relative="1" as="geometry">
            <mxPoint x="676.75" y="574" as="sourcePoint"/>
            <mxPoint x="530" y="710" as="targetPoint"/>
          </mxGeometry>
        </mxCell>
        <mxCell id="13L3IfXqPYc7VZr8CJZo-26" value="" style="endArrow=classic;html=1;strokeColor=#AD688B;strokeWidth=6;exitX=0.5;exitY=1;exitDx=0;exitDy=0;exitPerimeter=0;entryX=0.5;entryY=0;entryDx=0;entryDy=0;entryPerimeter=0;" parent="1" source="13L3IfXqPYc7VZr8CJZo-22" target="13L3IfXqPYc7VZr8CJZo-13" edge="1">
          <mxGeometry width="50" height="50" relative="1" as="geometry">
            <mxPoint x="846.75" y="574" as="sourcePoint"/>
            <mxPoint x="531.25" y="710" as="targetPoint"/>
          </mxGeometry>
        </mxCell>
        <mxCell id="13L3IfXqPYc7VZr8CJZo-1" value="&lt;div&gt;异构系统网关&lt;/div&gt;" style="outlineConnect=0;dashed=0;verticalLabelPosition=bottom;verticalAlign=top;align=center;html=1;shape=mxgraph.aws3.api_gateway;fillColor=#D9A741;gradientColor=none;" parent="1" vertex="1">
          <mxGeometry x="420" y="260" width="76.5" height="93" as="geometry"/>
        </mxCell>
        <mxCell id="13L3IfXqPYc7VZr8CJZo-2" value="bank-core-account" style="outlineConnect=0;dashed=0;verticalLabelPosition=bottom;verticalAlign=top;align=center;html=1;shape=mxgraph.aws3.android;fillColor=#EE472A;gradientColor=none;" parent="1" vertex="1">
          <mxGeometry x="630" y="480" width="73.5" height="84" as="geometry"/>
        </mxCell>
        <mxCell id="13L3IfXqPYc7VZr8CJZo-12" value="bank-core-customer" style="outlineConnect=0;dashed=0;verticalLabelPosition=bottom;verticalAlign=top;align=center;html=1;shape=mxgraph.aws3.android;fillColor=#EE472A;gradientColor=none;" parent="1" vertex="1">
          <mxGeometry x="480" y="480" width="73.5" height="84" as="geometry"/>
        </mxCell>
        <mxCell id="13L3IfXqPYc7VZr8CJZo-13" value="高阳核心系统" style="outlineConnect=0;dashed=0;verticalLabelPosition=bottom;verticalAlign=top;align=center;html=1;shape=mxgraph.aws3.pinpoint;fillColor=#AD688B;gradientColor=none;" parent="1" vertex="1">
          <mxGeometry x="483" y="700" width="76.5" height="87" as="geometry"/>
        </mxCell>
        <mxCell id="13L3IfXqPYc7VZr8CJZo-17" value="柜面" style="outlineConnect=0;dashed=0;verticalLabelPosition=bottom;verticalAlign=top;align=center;html=1;shape=mxgraph.aws3.android;fillColor=#4090D7;gradientColor=none;" parent="1" vertex="1">
          <mxGeometry x="420" y="50" width="73.5" height="84" as="geometry"/>
        </mxCell>
        <mxCell id="13L3IfXqPYc7VZr8CJZo-20" value="bank-core-constract" style="outlineConnect=0;dashed=0;verticalLabelPosition=bottom;verticalAlign=top;align=center;html=1;shape=mxgraph.aws3.android;fillColor=#EE472A;gradientColor=none;" parent="1" vertex="1">
          <mxGeometry x="800" y="480" width="73.5" height="84" as="geometry"/>
        </mxCell>
        <mxCell id="13L3IfXqPYc7VZr8CJZo-22" value="bank-core-commonservice" style="outlineConnect=0;dashed=0;verticalLabelPosition=bottom;verticalAlign=top;align=center;html=1;shape=mxgraph.aws3.android;fillColor=#EE472A;gradientColor=none;" parent="1" vertex="1">
          <mxGeometry x="980" y="480" width="73.5" height="84" as="geometry"/>
        </mxCell>
        <mxCell id="13L3IfXqPYc7VZr8CJZo-29" value="手机银行" style="outlineConnect=0;dashed=0;verticalLabelPosition=bottom;verticalAlign=top;align=center;html=1;shape=mxgraph.aws3.android;fillColor=#AE1F23;gradientColor=none;" parent="1" vertex="1">
          <mxGeometry x="731" y="58" width="73.5" height="84" as="geometry"/>
        </mxCell>
      </root>
    </mxGraphModel>
  </diagram>
  <diagram id="4wvOSrB9WbalLuYOy7-x" name="第 2 页">
    <mxGraphModel dx="1360" dy="809" grid="1" gridSize="10" guides="1" tooltips="1" connect="1" arrows="1" fold="1" page="1" pageScale="1" pageWidth="2339" pageHeight="3300" math="0" shadow="0">
      <root>
        <mxCell id="FssIbDYj2MCnW-lwvJyZ-0"/>
        <mxCell id="FssIbDYj2MCnW-lwvJyZ-1" parent="FssIbDYj2MCnW-lwvJyZ-0"/>
        <mxCell id="FssIbDYj2MCnW-lwvJyZ-15" value="Customer" style="shape=umlFrame;whiteSpace=wrap;html=1;fillColor=#D9A741;align=left;" parent="FssIbDYj2MCnW-lwvJyZ-1" vertex="1">
          <mxGeometry x="80" y="100" width="1030" height="340" as="geometry"/>
        </mxCell>
        <mxCell id="FssIbDYj2MCnW-lwvJyZ-13" style="edgeStyle=orthogonalEdgeStyle;rounded=0;orthogonalLoop=1;jettySize=auto;html=1;strokeColor=#D9A741;strokeWidth=6;" parent="FssIbDYj2MCnW-lwvJyZ-1" source="FssIbDYj2MCnW-lwvJyZ-11" target="FssIbDYj2MCnW-lwvJyZ-12" edge="1">
          <mxGeometry relative="1" as="geometry"/>
        </mxCell>
        <mxCell id="FssIbDYj2MCnW-lwvJyZ-11" value="&lt;p style=&quot;margin: 0px ; margin-top: 4px ; text-align: center&quot;&gt;&lt;i&gt;&amp;lt;&amp;lt;Interface&amp;gt;&amp;gt;&lt;/i&gt;&lt;/p&gt;&lt;p style=&quot;margin: 0px ; margin-top: 4px ; text-align: center&quot;&gt;&lt;b&gt;BankCustomerService&lt;/b&gt;&lt;br&gt;&lt;b&gt;&lt;/b&gt;&lt;/p&gt;&lt;hr size=&quot;1&quot;&gt;&lt;p style=&quot;margin: 0px ; margin-left: 4px&quot;&gt;+ addCustomer(AddBankCustomerDTO cust): String&lt;br&gt;+ updateCustomer(UpdateBankCustomerDTO cust):int&lt;br&gt;&lt;/p&gt;" style="verticalAlign=top;align=left;overflow=fill;fontSize=12;fontFamily=Helvetica;html=1;fillColor=#D9A741;" parent="FssIbDYj2MCnW-lwvJyZ-1" vertex="1">
          <mxGeometry x="170" y="220" width="310" height="100" as="geometry"/>
        </mxCell>
        <mxCell id="FssIbDYj2MCnW-lwvJyZ-12" value="&lt;p style=&quot;margin: 0px ; margin-top: 4px ; text-align: center&quot;&gt;&lt;i&gt;&amp;lt;&amp;lt;Interface&amp;gt;&amp;gt;&lt;/i&gt;&lt;/p&gt;&lt;p style=&quot;margin: 0px ; margin-top: 4px ; text-align: center&quot;&gt;&lt;b&gt;CoreCustomerAdapteService&lt;/b&gt;&lt;br&gt;&lt;b&gt;&lt;/b&gt;&lt;/p&gt;&lt;hr size=&quot;1&quot;&gt;&lt;p style=&quot;margin: 0px ; margin-left: 4px&quot;&gt;+ addCustomer(AddBankCustomerDTO cust): String&lt;br&gt;+ updateCustomer(UpdateBankCustomerDTO cust):int&lt;br&gt;&lt;/p&gt;" style="verticalAlign=top;align=left;overflow=fill;fontSize=12;fontFamily=Helvetica;html=1;fillColor=#D9A741;" parent="FssIbDYj2MCnW-lwvJyZ-1" vertex="1">
          <mxGeometry x="720" y="220" width="310" height="100" as="geometry"/>
        </mxCell>
      </root>
    </mxGraphModel>
  </diagram>
  <diagram id="K1vso86qx96ug3fYlgfU" name="第 3 页">
    <mxGraphModel dx="1360" dy="809" grid="1" gridSize="10" guides="1" tooltips="1" connect="1" arrows="1" fold="1" page="1" pageScale="1" pageWidth="2339" pageHeight="3300" math="0" shadow="0">
      <root>
        <mxCell id="qDQfIzDpgOzf-IJM98s1-0"/>
        <mxCell id="qDQfIzDpgOzf-IJM98s1-1" parent="qDQfIzDpgOzf-IJM98s1-0"/>
        <mxCell id="WWOnbEEiExkrueYqOy6W-1" value="&lt;b&gt;外围服务&lt;/b&gt;" style="outlineConnect=0;gradientColor=none;html=1;whiteSpace=wrap;fontSize=12;fontStyle=0;strokeColor=#CC99FF;fillColor=none;verticalAlign=top;align=center;fontColor=#FF9900;dashed=0;spacingTop=3;" parent="qDQfIzDpgOzf-IJM98s1-1" vertex="1">
          <mxGeometry x="300" y="580" width="800" height="130" as="geometry"/>
        </mxCell>
        <mxCell id="CDp3auJX-1x9rXOB2CkS-4" value="&lt;b&gt;前台服务&lt;/b&gt;" style="outlineConnect=0;gradientColor=none;html=1;whiteSpace=wrap;fontSize=12;fontStyle=0;strokeColor=#FF9900;fillColor=none;verticalAlign=top;align=center;fontColor=#FF9900;dashed=0;spacingTop=3;" parent="qDQfIzDpgOzf-IJM98s1-1" vertex="1">
          <mxGeometry x="300" y="140" width="800" height="130" as="geometry"/>
        </mxCell>
        <mxCell id="WWOnbEEiExkrueYqOy6W-0" value="&lt;b&gt;中台服务&lt;/b&gt;" style="outlineConnect=0;gradientColor=none;html=1;whiteSpace=wrap;fontSize=12;fontStyle=0;strokeColor=#67AB9F;fillColor=none;verticalAlign=top;align=center;fontColor=#FF9900;dashed=0;spacingTop=3;" parent="qDQfIzDpgOzf-IJM98s1-1" vertex="1">
          <mxGeometry x="300" y="290" width="800" height="270" as="geometry"/>
        </mxCell>
        <mxCell id="WWOnbEEiExkrueYqOy6W-2" value="柜面" style="rounded=0;whiteSpace=wrap;html=1;strokeColor=#6c8ebf;fillColor=#dae8fc;align=left;" parent="qDQfIzDpgOzf-IJM98s1-1" vertex="1">
          <mxGeometry x="330" y="180" width="80" height="50" as="geometry"/>
        </mxCell>
        <mxCell id="WWOnbEEiExkrueYqOy6W-3" value="在线开户" style="rounded=0;whiteSpace=wrap;html=1;strokeColor=#6c8ebf;fillColor=#dae8fc;align=left;" parent="qDQfIzDpgOzf-IJM98s1-1" vertex="1">
          <mxGeometry x="430" y="180" width="80" height="50" as="geometry"/>
        </mxCell>
        <mxCell id="WWOnbEEiExkrueYqOy6W-4" value="手机网银" style="rounded=0;whiteSpace=wrap;html=1;strokeColor=#6c8ebf;fillColor=#dae8fc;align=left;" parent="qDQfIzDpgOzf-IJM98s1-1" vertex="1">
          <mxGeometry x="530" y="180" width="80" height="50" as="geometry"/>
        </mxCell>
        <mxCell id="WWOnbEEiExkrueYqOy6W-5" value="后管系统" style="rounded=0;whiteSpace=wrap;html=1;strokeColor=#6c8ebf;fillColor=#dae8fc;align=left;" parent="qDQfIzDpgOzf-IJM98s1-1" vertex="1">
          <mxGeometry x="640" y="180" width="120" height="50" as="geometry"/>
        </mxCell>
        <mxCell id="WWOnbEEiExkrueYqOy6W-6" value="银行客户中心" style="rounded=0;whiteSpace=wrap;html=1;strokeColor=#82b366;fillColor=#d5e8d4;align=left;" parent="qDQfIzDpgOzf-IJM98s1-1" vertex="1">
          <mxGeometry x="320" y="410" width="120" height="60" as="geometry"/>
        </mxCell>
        <mxCell id="WWOnbEEiExkrueYqOy6W-7" value="银行帐户中心" style="rounded=0;whiteSpace=wrap;html=1;strokeColor=#82b366;fillColor=#d5e8d4;align=left;" parent="qDQfIzDpgOzf-IJM98s1-1" vertex="1">
          <mxGeometry x="460" y="410" width="120" height="60" as="geometry"/>
        </mxCell>
        <mxCell id="WWOnbEEiExkrueYqOy6W-8" value="银行公共服务" style="rounded=0;whiteSpace=wrap;html=1;strokeColor=#82b366;fillColor=#d5e8d4;align=left;" parent="qDQfIzDpgOzf-IJM98s1-1" vertex="1">
          <mxGeometry x="600" y="410" width="120" height="60" as="geometry"/>
        </mxCell>
        <mxCell id="WWOnbEEiExkrueYqOy6W-9" value="银行公共签约服务" style="rounded=0;whiteSpace=wrap;html=1;strokeColor=#82b366;fillColor=#d5e8d4;align=left;" parent="qDQfIzDpgOzf-IJM98s1-1" vertex="1">
          <mxGeometry x="740" y="410" width="120" height="60" as="geometry"/>
        </mxCell>
        <mxCell id="WWOnbEEiExkrueYqOy6W-10" value="核心前置服务" style="rounded=0;whiteSpace=wrap;html=1;strokeColor=#82b366;fillColor=#d5e8d4;align=left;" parent="qDQfIzDpgOzf-IJM98s1-1" vertex="1">
          <mxGeometry x="320" y="480" width="120" height="60" as="geometry"/>
        </mxCell>
        <mxCell id="WWOnbEEiExkrueYqOy6W-11" value="信用卡前置服务" style="rounded=0;whiteSpace=wrap;html=1;strokeColor=#82b366;fillColor=#d5e8d4;align=left;" parent="qDQfIzDpgOzf-IJM98s1-1" vertex="1">
          <mxGeometry x="460" y="480" width="120" height="60" as="geometry"/>
        </mxCell>
        <mxCell id="WWOnbEEiExkrueYqOy6W-12" value="银联卡系统前置服务" style="rounded=0;whiteSpace=wrap;html=1;strokeColor=#82b366;fillColor=#d5e8d4;align=left;" parent="qDQfIzDpgOzf-IJM98s1-1" vertex="1">
          <mxGeometry x="600" y="480" width="120" height="60" as="geometry"/>
        </mxCell>
        <mxCell id="WWOnbEEiExkrueYqOy6W-13" value="银联卡系统前置服务" style="rounded=0;whiteSpace=wrap;html=1;strokeColor=#82b366;fillColor=#d5e8d4;align=left;" parent="qDQfIzDpgOzf-IJM98s1-1" vertex="1">
          <mxGeometry x="740" y="480" width="120" height="60" as="geometry"/>
        </mxCell>
        <mxCell id="WWOnbEEiExkrueYqOy6W-15" value="银行核心系统" style="rounded=0;whiteSpace=wrap;html=1;strokeColor=#CC99FF;fillColor=#FFCCE6;align=left;" parent="qDQfIzDpgOzf-IJM98s1-1" vertex="1">
          <mxGeometry x="320" y="615" width="120" height="60" as="geometry"/>
        </mxCell>
        <mxCell id="WWOnbEEiExkrueYqOy6W-16" value="加密机前置服务" style="rounded=0;whiteSpace=wrap;html=1;strokeColor=#82b366;fillColor=#d5e8d4;align=left;" parent="qDQfIzDpgOzf-IJM98s1-1" vertex="1">
          <mxGeometry x="880" y="480" width="120" height="60" as="geometry"/>
        </mxCell>
        <mxCell id="WWOnbEEiExkrueYqOy6W-17" value="组织机构" style="rounded=0;whiteSpace=wrap;html=1;strokeColor=#82b366;fillColor=#d5e8d4;align=left;" parent="qDQfIzDpgOzf-IJM98s1-1" vertex="1">
          <mxGeometry x="320" y="340" width="120" height="60" as="geometry"/>
        </mxCell>
        <mxCell id="WWOnbEEiExkrueYqOy6W-18" value="安全认证服务" style="rounded=0;whiteSpace=wrap;html=1;strokeColor=#82b366;fillColor=#d5e8d4;align=left;" parent="qDQfIzDpgOzf-IJM98s1-1" vertex="1">
          <mxGeometry x="460" y="340" width="120" height="60" as="geometry"/>
        </mxCell>
        <mxCell id="WWOnbEEiExkrueYqOy6W-19" value="安全认证服务" style="rounded=0;whiteSpace=wrap;html=1;strokeColor=#82b366;fillColor=#d5e8d4;align=left;" parent="qDQfIzDpgOzf-IJM98s1-1" vertex="1">
          <mxGeometry x="600" y="340" width="120" height="60" as="geometry"/>
        </mxCell>
        <mxCell id="WWOnbEEiExkrueYqOy6W-20" value="银联卡系统 " style="rounded=0;whiteSpace=wrap;html=1;strokeColor=#CC99FF;fillColor=#FFCCE6;align=left;" parent="qDQfIzDpgOzf-IJM98s1-1" vertex="1">
          <mxGeometry x="450" y="615" width="120" height="60" as="geometry"/>
        </mxCell>
        <mxCell id="WWOnbEEiExkrueYqOy6W-21" value="加密机" style="rounded=0;whiteSpace=wrap;html=1;strokeColor=#CC99FF;fillColor=#FFCCE6;align=left;" parent="qDQfIzDpgOzf-IJM98s1-1" vertex="1">
          <mxGeometry x="590" y="615" width="120" height="60" as="geometry"/>
        </mxCell>
        <mxCell id="WWOnbEEiExkrueYqOy6W-22" value="信用卡中心" style="rounded=0;whiteSpace=wrap;html=1;strokeColor=#CC99FF;fillColor=#FFCCE6;align=left;" parent="qDQfIzDpgOzf-IJM98s1-1" vertex="1">
          <mxGeometry x="730" y="615" width="120" height="60" as="geometry"/>
        </mxCell>
        <mxCell id="WWOnbEEiExkrueYqOy6W-23" value="香港银证系统" style="rounded=0;whiteSpace=wrap;html=1;strokeColor=#CC99FF;fillColor=#FFCCE6;align=left;" parent="qDQfIzDpgOzf-IJM98s1-1" vertex="1">
          <mxGeometry x="870" y="615" width="120" height="60" as="geometry"/>
        </mxCell>
      </root>
    </mxGraphModel>
  </diagram>
  <diagram id="sZ34XkMy9QaFUVIaQNMP" name="第 4 页">
    <mxGraphModel dx="1360" dy="809" grid="1" gridSize="10" guides="1" tooltips="1" connect="1" arrows="1" fold="1" page="1" pageScale="1" pageWidth="2339" pageHeight="3300" math="0" shadow="0">
      <root>
        <mxCell id="DoUvKfBWzn_UVG2gKJId-0"/>
        <mxCell id="DoUvKfBWzn_UVG2gKJId-1" parent="DoUvKfBWzn_UVG2gKJId-0"/>
        <mxCell id="Lf3elt1ZdXFAK4XcEwIe-3" style="edgeStyle=orthogonalEdgeStyle;rounded=0;orthogonalLoop=1;jettySize=auto;html=1;" parent="DoUvKfBWzn_UVG2gKJId-1" source="DoUvKfBWzn_UVG2gKJId-2" target="DoUvKfBWzn_UVG2gKJId-3" edge="1">
          <mxGeometry relative="1" as="geometry"/>
        </mxCell>
        <mxCell id="Lf3elt1ZdXFAK4XcEwIe-4" value="OAuth2\http2" style="text;html=1;resizable=0;points=[];align=center;verticalAlign=middle;labelBackgroundColor=#ffffff;" parent="Lf3elt1ZdXFAK4XcEwIe-3" vertex="1" connectable="0">
          <mxGeometry x="-0.2235" relative="1" as="geometry">
            <mxPoint as="offset"/>
          </mxGeometry>
        </mxCell>
        <mxCell id="DoUvKfBWzn_UVG2gKJId-2" value="柜面" style="ellipse;whiteSpace=wrap;html=1;aspect=fixed;fillColor=#dae8fc;strokeColor=#6c8ebf;" parent="DoUvKfBWzn_UVG2gKJId-1" vertex="1">
          <mxGeometry x="130" y="270" width="80" height="80" as="geometry"/>
        </mxCell>
        <mxCell id="Lf3elt1ZdXFAK4XcEwIe-5" style="edgeStyle=orthogonalEdgeStyle;rounded=0;orthogonalLoop=1;jettySize=auto;html=1;" parent="DoUvKfBWzn_UVG2gKJId-1" source="DoUvKfBWzn_UVG2gKJId-3" target="DoUvKfBWzn_UVG2gKJId-4" edge="1">
          <mxGeometry relative="1" as="geometry">
            <mxPoint x="540" y="170" as="targetPoint"/>
            <Array as="points">
              <mxPoint x="420" y="170"/>
            </Array>
          </mxGeometry>
        </mxCell>
        <mxCell id="Lf3elt1ZdXFAK4XcEwIe-6" value="Authencation" style="text;html=1;resizable=0;points=[];align=center;verticalAlign=middle;labelBackgroundColor=#ffffff;" parent="Lf3elt1ZdXFAK4XcEwIe-5" vertex="1" connectable="0">
          <mxGeometry x="-0.1304" y="-32" relative="1" as="geometry">
            <mxPoint x="32" y="-32" as="offset"/>
          </mxGeometry>
        </mxCell>
        <mxCell id="Lf3elt1ZdXFAK4XcEwIe-7" style="edgeStyle=orthogonalEdgeStyle;rounded=0;orthogonalLoop=1;jettySize=auto;html=1;" parent="DoUvKfBWzn_UVG2gKJId-1" source="DoUvKfBWzn_UVG2gKJId-3" target="DoUvKfBWzn_UVG2gKJId-5" edge="1">
          <mxGeometry relative="1" as="geometry"/>
        </mxCell>
        <mxCell id="Lf3elt1ZdXFAK4XcEwIe-8" value="Http" style="text;html=1;resizable=0;points=[];align=center;verticalAlign=middle;labelBackgroundColor=#ffffff;" parent="Lf3elt1ZdXFAK4XcEwIe-7" vertex="1" connectable="0">
          <mxGeometry x="-0.32" y="-2" relative="1" as="geometry">
            <mxPoint as="offset"/>
          </mxGeometry>
        </mxCell>
        <mxCell id="DoUvKfBWzn_UVG2gKJId-3" value="网关" style="ellipse;whiteSpace=wrap;html=1;aspect=fixed;fillColor=#fff2cc;strokeColor=#d6b656;" parent="DoUvKfBWzn_UVG2gKJId-1" vertex="1">
          <mxGeometry x="380" y="270" width="80" height="80" as="geometry"/>
        </mxCell>
        <mxCell id="DoUvKfBWzn_UVG2gKJId-4" value="OAuth Server" style="rounded=1;whiteSpace=wrap;html=1;fillColor=#f8cecc;strokeColor=#b85450;" parent="DoUvKfBWzn_UVG2gKJId-1" vertex="1">
          <mxGeometry x="550" y="150" width="120" height="60" as="geometry"/>
        </mxCell>
        <mxCell id="DoUvKfBWzn_UVG2gKJId-5" value="bank-teller" style="rounded=1;whiteSpace=wrap;html=1;fillColor=#f5f5f5;strokeColor=#666666;fontColor=#333333;" parent="DoUvKfBWzn_UVG2gKJId-1" vertex="1">
          <mxGeometry x="560" y="280" width="140" height="60" as="geometry"/>
        </mxCell>
        <mxCell id="Lf3elt1ZdXFAK4XcEwIe-9" value="bank-core-commonservice" style="rounded=1;whiteSpace=wrap;html=1;fillColor=#f5f5f5;strokeColor=#666666;fontColor=#333333;" parent="DoUvKfBWzn_UVG2gKJId-1" vertex="1">
          <mxGeometry x="810" y="200" width="160" height="60" as="geometry"/>
        </mxCell>
        <mxCell id="Lf3elt1ZdXFAK4XcEwIe-10" value="bank-core-customer" style="rounded=1;whiteSpace=wrap;html=1;fillColor=#f5f5f5;strokeColor=#666666;fontColor=#333333;" parent="DoUvKfBWzn_UVG2gKJId-1" vertex="1">
          <mxGeometry x="810" y="280" width="140" height="60" as="geometry"/>
        </mxCell>
        <mxCell id="Lf3elt1ZdXFAK4XcEwIe-11" value="bank-core-account" style="rounded=1;whiteSpace=wrap;html=1;fillColor=#f5f5f5;strokeColor=#666666;fontColor=#333333;" parent="DoUvKfBWzn_UVG2gKJId-1" vertex="1">
          <mxGeometry x="810" y="360" width="140" height="60" as="geometry"/>
        </mxCell>
        <mxCell id="Lf3elt1ZdXFAK4XcEwIe-13" value="" style="endArrow=classic;html=1;exitX=1;exitY=0.5;exitDx=0;exitDy=0;entryX=0;entryY=0.5;entryDx=0;entryDy=0;" parent="DoUvKfBWzn_UVG2gKJId-1" source="DoUvKfBWzn_UVG2gKJId-5" target="Lf3elt1ZdXFAK4XcEwIe-9" edge="1">
          <mxGeometry width="50" height="50" relative="1" as="geometry">
            <mxPoint x="730" y="350" as="sourcePoint"/>
            <mxPoint x="780" y="300" as="targetPoint"/>
          </mxGeometry>
        </mxCell>
        <mxCell id="Lf3elt1ZdXFAK4XcEwIe-16" value="RPC" style="text;html=1;resizable=0;points=[];align=center;verticalAlign=middle;labelBackgroundColor=#ffffff;" parent="Lf3elt1ZdXFAK4XcEwIe-13" vertex="1" connectable="0">
          <mxGeometry x="-0.1795" relative="1" as="geometry">
            <mxPoint as="offset"/>
          </mxGeometry>
        </mxCell>
        <mxCell id="Lf3elt1ZdXFAK4XcEwIe-14" value="" style="endArrow=classic;html=1;exitX=1;exitY=0.5;exitDx=0;exitDy=0;entryX=0;entryY=0.5;entryDx=0;entryDy=0;" parent="DoUvKfBWzn_UVG2gKJId-1" source="DoUvKfBWzn_UVG2gKJId-5" target="Lf3elt1ZdXFAK4XcEwIe-10" edge="1">
          <mxGeometry width="50" height="50" relative="1" as="geometry">
            <mxPoint x="710" y="320" as="sourcePoint"/>
            <mxPoint x="820" y="240" as="targetPoint"/>
          </mxGeometry>
        </mxCell>
        <mxCell id="Lf3elt1ZdXFAK4XcEwIe-17" value="RPC" style="text;html=1;resizable=0;points=[];align=center;verticalAlign=middle;labelBackgroundColor=#ffffff;" parent="Lf3elt1ZdXFAK4XcEwIe-14" vertex="1" connectable="0">
          <mxGeometry x="0.3091" y="-3" relative="1" as="geometry">
            <mxPoint as="offset"/>
          </mxGeometry>
        </mxCell>
        <mxCell id="Lf3elt1ZdXFAK4XcEwIe-15" value="" style="endArrow=classic;html=1;entryX=0;entryY=0.5;entryDx=0;entryDy=0;" parent="DoUvKfBWzn_UVG2gKJId-1" target="Lf3elt1ZdXFAK4XcEwIe-11" edge="1">
          <mxGeometry width="50" height="50" relative="1" as="geometry">
            <mxPoint x="700" y="310" as="sourcePoint"/>
            <mxPoint x="830" y="250" as="targetPoint"/>
          </mxGeometry>
        </mxCell>
        <mxCell id="Lf3elt1ZdXFAK4XcEwIe-18" value="RPC" style="text;html=1;resizable=0;points=[];align=center;verticalAlign=middle;labelBackgroundColor=#ffffff;" parent="Lf3elt1ZdXFAK4XcEwIe-15" vertex="1" connectable="0">
          <mxGeometry x="0.2616" y="-1" relative="1" as="geometry">
            <mxPoint as="offset"/>
          </mxGeometry>
        </mxCell>
        <mxCell id="Oy-Zg5OORuSJ3XnXzqml-0" value="bank-core-constract" style="rounded=1;whiteSpace=wrap;html=1;fillColor=#f5f5f5;strokeColor=#666666;fontColor=#333333;" vertex="1" parent="DoUvKfBWzn_UVG2gKJId-1">
          <mxGeometry x="810" y="440" width="140" height="60" as="geometry"/>
        </mxCell>
        <mxCell id="Oy-Zg5OORuSJ3XnXzqml-1" value="" style="endArrow=classic;html=1;entryX=0;entryY=0.5;entryDx=0;entryDy=0;exitX=1;exitY=0.5;exitDx=0;exitDy=0;" edge="1" parent="DoUvKfBWzn_UVG2gKJId-1" source="DoUvKfBWzn_UVG2gKJId-5" target="Oy-Zg5OORuSJ3XnXzqml-0">
          <mxGeometry width="50" height="50" relative="1" as="geometry">
            <mxPoint x="710" y="320" as="sourcePoint"/>
            <mxPoint x="820" y="400" as="targetPoint"/>
          </mxGeometry>
        </mxCell>
        <mxCell id="Oy-Zg5OORuSJ3XnXzqml-2" value="RPC" style="text;html=1;resizable=0;points=[];align=center;verticalAlign=middle;labelBackgroundColor=#ffffff;" vertex="1" connectable="0" parent="Oy-Zg5OORuSJ3XnXzqml-1">
          <mxGeometry x="0.2616" y="-1" relative="1" as="geometry">
            <mxPoint as="offset"/>
          </mxGeometry>
        </mxCell>
      </root>
    </mxGraphModel>
  </diagram>
  <diagram id="hEMK3o4cg5pOkJts3cVK" name="第 5 页">
    <mxGraphModel dx="1360" dy="809" grid="1" gridSize="10" guides="1" tooltips="1" connect="1" arrows="1" fold="1" page="1" pageScale="1" pageWidth="2339" pageHeight="3300" math="0" shadow="0">
      <root>
        <mxCell id="UxiXMLoGfcUMyoIScZE7-0"/>
        <mxCell id="UxiXMLoGfcUMyoIScZE7-1" parent="UxiXMLoGfcUMyoIScZE7-0"/>
        <mxCell id="lWEDYlLCNiSOTuroNTe1-14" value="" style="edgeStyle=orthogonalEdgeStyle;rounded=0;orthogonalLoop=1;jettySize=auto;html=1;" parent="UxiXMLoGfcUMyoIScZE7-1" source="lWEDYlLCNiSOTuroNTe1-0" target="lWEDYlLCNiSOTuroNTe1-13" edge="1">
          <mxGeometry relative="1" as="geometry"/>
        </mxCell>
        <mxCell id="lWEDYlLCNiSOTuroNTe1-0" value="XX服务" style="ellipse;shape=doubleEllipse;whiteSpace=wrap;html=1;aspect=fixed;fillColor=#fff2cc;strokeColor=#d6b656;" parent="UxiXMLoGfcUMyoIScZE7-1" vertex="1">
          <mxGeometry x="517.5" y="200" width="80" height="80" as="geometry"/>
        </mxCell>
        <mxCell id="lWEDYlLCNiSOTuroNTe1-10" value="" style="edgeStyle=orthogonalEdgeStyle;rounded=0;orthogonalLoop=1;jettySize=auto;html=1;" parent="UxiXMLoGfcUMyoIScZE7-1" source="lWEDYlLCNiSOTuroNTe1-9" target="lWEDYlLCNiSOTuroNTe1-0" edge="1">
          <mxGeometry relative="1" as="geometry"/>
        </mxCell>
        <mxCell id="lWEDYlLCNiSOTuroNTe1-16" value="" style="edgeStyle=orthogonalEdgeStyle;rounded=0;orthogonalLoop=1;jettySize=auto;html=1;" parent="UxiXMLoGfcUMyoIScZE7-1" source="lWEDYlLCNiSOTuroNTe1-9" target="lWEDYlLCNiSOTuroNTe1-15" edge="1">
          <mxGeometry relative="1" as="geometry"/>
        </mxCell>
        <mxCell id="lWEDYlLCNiSOTuroNTe1-9" value="日志AOP前置处理" style="shape=ext;double=1;rounded=1;whiteSpace=wrap;html=1;fillColor=#dae8fc;strokeColor=#6c8ebf;" parent="UxiXMLoGfcUMyoIScZE7-1" vertex="1">
          <mxGeometry x="435" y="110" width="245" height="40" as="geometry"/>
        </mxCell>
        <mxCell id="lWEDYlLCNiSOTuroNTe1-18" value="" style="edgeStyle=orthogonalEdgeStyle;rounded=0;orthogonalLoop=1;jettySize=auto;html=1;" parent="UxiXMLoGfcUMyoIScZE7-1" source="lWEDYlLCNiSOTuroNTe1-15" target="lWEDYlLCNiSOTuroNTe1-17" edge="1">
          <mxGeometry relative="1" as="geometry"/>
        </mxCell>
        <mxCell id="lWEDYlLCNiSOTuroNTe1-15" value="检测是否注解了@operation" style="shape=ext;double=1;rounded=1;whiteSpace=wrap;html=1;fillColor=#d5e8d4;strokeColor=#82b366;" parent="UxiXMLoGfcUMyoIScZE7-1" vertex="1">
          <mxGeometry x="760" y="110" width="245" height="40" as="geometry"/>
        </mxCell>
        <mxCell id="lWEDYlLCNiSOTuroNTe1-28" value="" style="edgeStyle=orthogonalEdgeStyle;rounded=0;orthogonalLoop=1;jettySize=auto;html=1;" parent="UxiXMLoGfcUMyoIScZE7-1" source="lWEDYlLCNiSOTuroNTe1-17" target="lWEDYlLCNiSOTuroNTe1-27" edge="1">
          <mxGeometry relative="1" as="geometry"/>
        </mxCell>
        <mxCell id="lWEDYlLCNiSOTuroNTe1-17" value="根据@operation 组装Log信息" style="shape=ext;double=1;rounded=1;whiteSpace=wrap;html=1;fillColor=#d5e8d4;strokeColor=#82b366;" parent="UxiXMLoGfcUMyoIScZE7-1" vertex="1">
          <mxGeometry x="760" y="175" width="245" height="40" as="geometry"/>
        </mxCell>
        <mxCell id="lWEDYlLCNiSOTuroNTe1-27" value="将日志存于ThreadLocal中" style="shape=ext;double=1;rounded=1;whiteSpace=wrap;html=1;fillColor=#d5e8d4;strokeColor=#82b366;" parent="UxiXMLoGfcUMyoIScZE7-1" vertex="1">
          <mxGeometry x="760" y="240" width="245" height="40" as="geometry"/>
        </mxCell>
        <mxCell id="lWEDYlLCNiSOTuroNTe1-22" value="" style="edgeStyle=orthogonalEdgeStyle;rounded=0;orthogonalLoop=1;jettySize=auto;html=1;" parent="UxiXMLoGfcUMyoIScZE7-1" source="lWEDYlLCNiSOTuroNTe1-13" target="lWEDYlLCNiSOTuroNTe1-21" edge="1">
          <mxGeometry relative="1" as="geometry"/>
        </mxCell>
        <mxCell id="lWEDYlLCNiSOTuroNTe1-13" value="日志AOP前置处理" style="shape=ext;double=1;rounded=1;whiteSpace=wrap;html=1;fillColor=#dae8fc;strokeColor=#6c8ebf;" parent="UxiXMLoGfcUMyoIScZE7-1" vertex="1">
          <mxGeometry x="435" y="330" width="245" height="40" as="geometry"/>
        </mxCell>
        <mxCell id="lWEDYlLCNiSOTuroNTe1-26" value="" style="edgeStyle=orthogonalEdgeStyle;rounded=0;orthogonalLoop=1;jettySize=auto;html=1;" parent="UxiXMLoGfcUMyoIScZE7-1" source="lWEDYlLCNiSOTuroNTe1-21" target="lWEDYlLCNiSOTuroNTe1-25" edge="1">
          <mxGeometry relative="1" as="geometry"/>
        </mxCell>
        <mxCell id="lWEDYlLCNiSOTuroNTe1-21" value="获取调用服务状态" style="shape=ext;double=1;rounded=1;whiteSpace=wrap;html=1;fillColor=#d5e8d4;strokeColor=#82b366;" parent="UxiXMLoGfcUMyoIScZE7-1" vertex="1">
          <mxGeometry x="760" y="330" width="245" height="40" as="geometry"/>
        </mxCell>
        <mxCell id="lWEDYlLCNiSOTuroNTe1-25" value="保存操作日志" style="shape=ext;double=1;rounded=1;whiteSpace=wrap;html=1;fillColor=#d5e8d4;strokeColor=#82b366;" parent="UxiXMLoGfcUMyoIScZE7-1" vertex="1">
          <mxGeometry x="760" y="400" width="245" height="40" as="geometry"/>
        </mxCell>
        <mxCell id="lWEDYlLCNiSOTuroNTe1-29" value="" style="endArrow=classic;html=1;entryX=0.25;entryY=0;entryDx=0;entryDy=0;" parent="UxiXMLoGfcUMyoIScZE7-1" target="lWEDYlLCNiSOTuroNTe1-9" edge="1">
          <mxGeometry width="50" height="50" relative="1" as="geometry">
            <mxPoint x="496" y="40" as="sourcePoint"/>
            <mxPoint x="480" y="20" as="targetPoint"/>
          </mxGeometry>
        </mxCell>
        <mxCell id="lWEDYlLCNiSOTuroNTe1-31" value="请求" style="text;html=1;resizable=0;points=[];align=center;verticalAlign=middle;labelBackgroundColor=#ffffff;" parent="lWEDYlLCNiSOTuroNTe1-29" vertex="1" connectable="0">
          <mxGeometry x="0.2572" y="1" relative="1" as="geometry">
            <mxPoint as="offset"/>
          </mxGeometry>
        </mxCell>
        <mxCell id="lWEDYlLCNiSOTuroNTe1-30" value="" style="endArrow=classic;html=1;entryX=0.25;entryY=0;entryDx=0;entryDy=0;" parent="UxiXMLoGfcUMyoIScZE7-1" edge="1">
          <mxGeometry width="50" height="50" relative="1" as="geometry">
            <mxPoint x="620" y="40" as="sourcePoint"/>
            <mxPoint x="620.25" y="110" as="targetPoint"/>
          </mxGeometry>
        </mxCell>
        <mxCell id="lWEDYlLCNiSOTuroNTe1-32" value="请求" style="text;html=1;resizable=0;points=[];align=center;verticalAlign=middle;labelBackgroundColor=#ffffff;" parent="lWEDYlLCNiSOTuroNTe1-30" vertex="1" connectable="0">
          <mxGeometry x="0.2572" y="1" relative="1" as="geometry">
            <mxPoint as="offset"/>
          </mxGeometry>
        </mxCell>
      </root>
    </mxGraphModel>
  </diagram>
  <diagram id="Qch7KrXlZ9aKGim-Gt3Q" name="第 6 页">
    <mxGraphModel dx="1360" dy="809" grid="1" gridSize="10" guides="1" tooltips="1" connect="1" arrows="1" fold="1" page="1" pageScale="1" pageWidth="2339" pageHeight="3300" math="0" shadow="0">
      <root>
        <mxCell id="hLmkpfjh2Wqm0HBX_Z2b-0"/>
        <mxCell id="hLmkpfjh2Wqm0HBX_Z2b-1" parent="hLmkpfjh2Wqm0HBX_Z2b-0"/>
        <mxCell id="hLmkpfjh2Wqm0HBX_Z2b-4" value="" style="edgeStyle=orthogonalEdgeStyle;rounded=0;orthogonalLoop=1;jettySize=auto;html=1;" parent="hLmkpfjh2Wqm0HBX_Z2b-1" source="hLmkpfjh2Wqm0HBX_Z2b-2" target="hLmkpfjh2Wqm0HBX_Z2b-3" edge="1">
          <mxGeometry relative="1" as="geometry"/>
        </mxCell>
        <mxCell id="hLmkpfjh2Wqm0HBX_Z2b-5" value="" style="edgeStyle=orthogonalEdgeStyle;rounded=0;orthogonalLoop=1;jettySize=auto;html=1;" parent="hLmkpfjh2Wqm0HBX_Z2b-1" source="hLmkpfjh2Wqm0HBX_Z2b-2" target="hLmkpfjh2Wqm0HBX_Z2b-3" edge="1">
          <mxGeometry relative="1" as="geometry"/>
        </mxCell>
        <mxCell id="hLmkpfjh2Wqm0HBX_Z2b-8" style="edgeStyle=orthogonalEdgeStyle;rounded=0;orthogonalLoop=1;jettySize=auto;html=1;entryX=0;entryY=0.5;entryDx=0;entryDy=0;" parent="hLmkpfjh2Wqm0HBX_Z2b-1" source="hLmkpfjh2Wqm0HBX_Z2b-2" target="hLmkpfjh2Wqm0HBX_Z2b-6" edge="1">
          <mxGeometry relative="1" as="geometry"/>
        </mxCell>
        <mxCell id="EKN6Vuvsf3S5AqP_zFXl-1" style="edgeStyle=orthogonalEdgeStyle;rounded=0;orthogonalLoop=1;jettySize=auto;html=1;entryX=0;entryY=0.5;entryDx=0;entryDy=0;" parent="hLmkpfjh2Wqm0HBX_Z2b-1" source="hLmkpfjh2Wqm0HBX_Z2b-2" target="EKN6Vuvsf3S5AqP_zFXl-0" edge="1">
          <mxGeometry relative="1" as="geometry"/>
        </mxCell>
        <mxCell id="hLmkpfjh2Wqm0HBX_Z2b-2" value="bank-core-customer" style="rounded=1;whiteSpace=wrap;html=1;fillColor=#f5f5f5;strokeColor=#666666;fontColor=#333333;" parent="hLmkpfjh2Wqm0HBX_Z2b-1" vertex="1">
          <mxGeometry x="350" y="130" width="120" height="60" as="geometry"/>
        </mxCell>
        <mxCell id="hLmkpfjh2Wqm0HBX_Z2b-6" value="bank-core-customer-server" style="rounded=1;whiteSpace=wrap;html=1;fillColor=#fff2cc;strokeColor=#d6b656;" parent="hLmkpfjh2Wqm0HBX_Z2b-1" vertex="1">
          <mxGeometry x="550" y="220" width="200" height="60" as="geometry"/>
        </mxCell>
        <mxCell id="hLmkpfjh2Wqm0HBX_Z2b-3" value="bank-core-customer-schema" style="rounded=1;whiteSpace=wrap;html=1;fillColor=#fff2cc;strokeColor=#d6b656;" parent="hLmkpfjh2Wqm0HBX_Z2b-1" vertex="1">
          <mxGeometry x="550" y="130" width="200" height="60" as="geometry"/>
        </mxCell>
        <mxCell id="hLmkpfjh2Wqm0HBX_Z2b-11" value="" style="edgeStyle=orthogonalEdgeStyle;rounded=0;orthogonalLoop=1;jettySize=auto;html=1;" parent="hLmkpfjh2Wqm0HBX_Z2b-1" source="hLmkpfjh2Wqm0HBX_Z2b-9" target="hLmkpfjh2Wqm0HBX_Z2b-10" edge="1">
          <mxGeometry relative="1" as="geometry"/>
        </mxCell>
        <mxCell id="hLmkpfjh2Wqm0HBX_Z2b-9" value="外部接口定义" style="text;html=1;strokeColor=none;fillColor=none;align=center;verticalAlign=middle;whiteSpace=wrap;rounded=0;" parent="hLmkpfjh2Wqm0HBX_Z2b-1" vertex="1">
          <mxGeometry x="770" y="140" width="100" height="20" as="geometry"/>
        </mxCell>
        <mxCell id="EKN6Vuvsf3S5AqP_zFXl-3" value="" style="edgeStyle=orthogonalEdgeStyle;rounded=0;orthogonalLoop=1;jettySize=auto;html=1;" parent="hLmkpfjh2Wqm0HBX_Z2b-1" source="hLmkpfjh2Wqm0HBX_Z2b-10" target="EKN6Vuvsf3S5AqP_zFXl-2" edge="1">
          <mxGeometry relative="1" as="geometry"/>
        </mxCell>
        <mxCell id="hLmkpfjh2Wqm0HBX_Z2b-10" value="boot组件以及所有逻辑实现组件" style="text;html=1;strokeColor=none;fillColor=none;align=center;verticalAlign=middle;whiteSpace=wrap;rounded=0;" parent="hLmkpfjh2Wqm0HBX_Z2b-1" vertex="1">
          <mxGeometry x="770" y="240" width="100" height="20" as="geometry"/>
        </mxCell>
        <mxCell id="EKN6Vuvsf3S5AqP_zFXl-2" value="领域对象" style="text;html=1;strokeColor=none;fillColor=none;align=center;verticalAlign=middle;whiteSpace=wrap;rounded=0;" parent="hLmkpfjh2Wqm0HBX_Z2b-1" vertex="1">
          <mxGeometry x="770" y="340" width="100" height="20" as="geometry"/>
        </mxCell>
        <mxCell id="EKN6Vuvsf3S5AqP_zFXl-0" value="bank-core-customer-types" style="rounded=1;whiteSpace=wrap;html=1;fillColor=#fff2cc;strokeColor=#d6b656;" parent="hLmkpfjh2Wqm0HBX_Z2b-1" vertex="1">
          <mxGeometry x="550" y="310" width="200" height="60" as="geometry"/>
        </mxCell>
      </root>
    </mxGraphModel>
  </diagram>
  <diagram id="RDjOnkPUQ6_wKMy3muae" name="第 7 页">
    <mxGraphModel dx="1360" dy="4109" grid="1" gridSize="10" guides="1" tooltips="1" connect="1" arrows="1" fold="1" page="1" pageScale="1" pageWidth="2339" pageHeight="3300" math="0" shadow="0">
      <root>
        <mxCell id="vxTiKY2ISjZA_pXWul-K-0"/>
        <mxCell id="vxTiKY2ISjZA_pXWul-K-1" parent="vxTiKY2ISjZA_pXWul-K-0"/>
        <mxCell id="LDde4GMp7c-thHM9mIXl-0" value="Name" style="swimlane;childLayout=stackLayout;horizontal=1;startSize=30;horizontalStack=0;fillColor=#008cff;fontColor=#FFFFFF;rounded=1;fontSize=14;fontStyle=0;strokeWidth=2;resizeParent=0;resizeLast=1;shadow=0;dashed=0;align=center;" vertex="1" parent="vxTiKY2ISjZA_pXWul-K-1">
          <mxGeometry x="480" y="230" width="160" height="120" as="geometry"/>
        </mxCell>
        <mxCell id="LDde4GMp7c-thHM9mIXl-6" style="edgeStyle=orthogonalEdgeStyle;rounded=0;orthogonalLoop=1;jettySize=auto;html=1;" edge="1" parent="vxTiKY2ISjZA_pXWul-K-1" source="LDde4GMp7c-thHM9mIXl-3">
          <mxGeometry relative="1" as="geometry">
            <mxPoint x="480" y="305" as="targetPoint"/>
          </mxGeometry>
        </mxCell>
        <mxCell id="LDde4GMp7c-thHM9mIXl-2" value="CustomerPerson" style="swimlane;childLayout=stackLayout;horizontal=1;startSize=30;horizontalStack=0;fillColor=#008cff;fontColor=#FFFFFF;rounded=1;fontSize=14;fontStyle=0;strokeWidth=2;resizeParent=0;resizeLast=1;shadow=0;dashed=0;align=center;" vertex="1" parent="vxTiKY2ISjZA_pXWul-K-1">
          <mxGeometry x="200" y="230" width="160" height="120" as="geometry"/>
        </mxCell>
        <mxCell id="LDde4GMp7c-thHM9mIXl-3" value="+customerNo&#xa;+customerName&#xa;" style="align=left;strokeColor=none;fillColor=none;spacingLeft=4;fontSize=12;verticalAlign=top;resizable=0;rotatable=0;part=1;" vertex="1" parent="LDde4GMp7c-thHM9mIXl-2">
          <mxGeometry y="30" width="160" height="90" as="geometry"/>
        </mxCell>
        <mxCell id="LDde4GMp7c-thHM9mIXl-9" value="CustomerAddress" style="swimlane;childLayout=stackLayout;horizontal=1;startSize=30;horizontalStack=0;fillColor=#008cff;fontColor=#FFFFFF;rounded=1;fontSize=14;fontStyle=0;strokeWidth=2;resizeParent=0;resizeLast=1;shadow=0;dashed=0;align=center;" vertex="1" parent="vxTiKY2ISjZA_pXWul-K-1">
          <mxGeometry x="480" y="390" width="160" height="120" as="geometry"/>
        </mxCell>
        <mxCell id="LDde4GMp7c-thHM9mIXl-10" value="+addresses&#xa;+phones&#xa;" style="align=left;strokeColor=none;fillColor=none;spacingLeft=4;fontSize=12;verticalAlign=top;resizable=0;rotatable=0;part=1;" vertex="1" parent="LDde4GMp7c-thHM9mIXl-9">
          <mxGeometry y="30" width="160" height="90" as="geometry"/>
        </mxCell>
        <mxCell id="LDde4GMp7c-thHM9mIXl-11" value="Phone" style="swimlane;childLayout=stackLayout;horizontal=1;startSize=30;horizontalStack=0;fillColor=#008cff;fontColor=#FFFFFF;rounded=1;fontSize=14;fontStyle=0;strokeWidth=2;resizeParent=0;resizeLast=1;shadow=0;dashed=0;align=center;" vertex="1" parent="vxTiKY2ISjZA_pXWul-K-1">
          <mxGeometry x="720" y="280" width="160" height="140" as="geometry"/>
        </mxCell>
        <mxCell id="LDde4GMp7c-thHM9mIXl-12" value="+phoneNumber&#xa;+phoneType&#xa;+useType&#xa;+country&#xa;+nationType&#xa;+nationCode&#xa;" style="align=left;strokeColor=none;fillColor=none;spacingLeft=4;fontSize=12;verticalAlign=top;resizable=0;rotatable=0;part=1;" vertex="1" parent="LDde4GMp7c-thHM9mIXl-11">
          <mxGeometry y="30" width="160" height="110" as="geometry"/>
        </mxCell>
        <mxCell id="LDde4GMp7c-thHM9mIXl-16" value="&lt;div&gt;+nameEn&lt;/div&gt;&lt;div&gt;+nameCn&lt;br&gt;&lt;/div&gt;&lt;div&gt;+alias&lt;/div&gt;&lt;div&gt;+shortName&lt;br&gt;&lt;/div&gt;&lt;div&gt;&lt;br&gt;&lt;/div&gt;" style="text;html=1;resizable=0;points=[];autosize=1;align=left;verticalAlign=top;spacingTop=-4;" vertex="1" parent="vxTiKY2ISjZA_pXWul-K-1">
          <mxGeometry x="486" y="267" width="80" height="70" as="geometry"/>
        </mxCell>
        <mxCell id="LDde4GMp7c-thHM9mIXl-19" style="edgeStyle=orthogonalEdgeStyle;rounded=0;orthogonalLoop=1;jettySize=auto;html=1;entryX=0;entryY=0.5;entryDx=0;entryDy=0;" edge="1" parent="vxTiKY2ISjZA_pXWul-K-1" source="LDde4GMp7c-thHM9mIXl-10" target="LDde4GMp7c-thHM9mIXl-12">
          <mxGeometry relative="1" as="geometry"/>
        </mxCell>
        <mxCell id="LDde4GMp7c-thHM9mIXl-20" style="edgeStyle=orthogonalEdgeStyle;rounded=0;orthogonalLoop=1;jettySize=auto;html=1;entryX=0;entryY=0.5;entryDx=0;entryDy=0;" edge="1" parent="vxTiKY2ISjZA_pXWul-K-1" source="LDde4GMp7c-thHM9mIXl-3" target="LDde4GMp7c-thHM9mIXl-10">
          <mxGeometry relative="1" as="geometry"/>
        </mxCell>
        <mxCell id="LDde4GMp7c-thHM9mIXl-21" value="IdEntity" style="swimlane;childLayout=stackLayout;horizontal=1;startSize=30;horizontalStack=0;fillColor=#008cff;fontColor=#FFFFFF;rounded=1;fontSize=14;fontStyle=0;strokeWidth=2;resizeParent=0;resizeLast=1;shadow=0;dashed=0;align=center;" vertex="1" parent="vxTiKY2ISjZA_pXWul-K-1">
          <mxGeometry x="480" y="60" width="160" height="120" as="geometry"/>
        </mxCell>
        <mxCell id="LDde4GMp7c-thHM9mIXl-22" value="+idNumber&#xa;+idEntityType&#xa;+idEntityName&#xa;" style="align=left;strokeColor=none;fillColor=none;spacingLeft=4;fontSize=12;verticalAlign=top;resizable=0;rotatable=0;part=1;" vertex="1" parent="LDde4GMp7c-thHM9mIXl-21">
          <mxGeometry y="30" width="160" height="90" as="geometry"/>
        </mxCell>
        <mxCell id="LDde4GMp7c-thHM9mIXl-24" value="Risk" style="swimlane;childLayout=stackLayout;horizontal=1;startSize=30;horizontalStack=0;fillColor=#008cff;fontColor=#FFFFFF;rounded=1;fontSize=14;fontStyle=0;strokeWidth=2;resizeParent=0;resizeLast=1;shadow=0;dashed=0;align=center;" vertex="1" parent="vxTiKY2ISjZA_pXWul-K-1">
          <mxGeometry x="480" y="560" width="160" height="120" as="geometry"/>
        </mxCell>
        <mxCell id="LDde4GMp7c-thHM9mIXl-25" value="+Attribute1&#xa;+Attribute2&#xa;+Attribute3" style="align=left;strokeColor=none;fillColor=none;spacingLeft=4;fontSize=12;verticalAlign=top;resizable=0;rotatable=0;part=1;" vertex="1" parent="LDde4GMp7c-thHM9mIXl-24">
          <mxGeometry y="30" width="160" height="90" as="geometry"/>
        </mxCell>
        <mxCell id="LDde4GMp7c-thHM9mIXl-34" value="" style="edgeStyle=orthogonalEdgeStyle;rounded=0;orthogonalLoop=1;jettySize=auto;html=1;" edge="1" parent="vxTiKY2ISjZA_pXWul-K-1" source="LDde4GMp7c-thHM9mIXl-26" target="LDde4GMp7c-thHM9mIXl-32">
          <mxGeometry relative="1" as="geometry"/>
        </mxCell>
        <mxCell id="LDde4GMp7c-thHM9mIXl-26" value="Statement" style="swimlane;childLayout=stackLayout;horizontal=1;startSize=30;horizontalStack=0;fillColor=#008cff;fontColor=#FFFFFF;rounded=1;fontSize=14;fontStyle=0;strokeWidth=2;resizeParent=0;resizeLast=1;shadow=0;dashed=0;align=center;" vertex="1" parent="vxTiKY2ISjZA_pXWul-K-1">
          <mxGeometry x="480" y="730" width="160" height="120" as="geometry"/>
        </mxCell>
        <mxCell id="LDde4GMp7c-thHM9mIXl-27" value="+Attribute1&#xa;+Attribute2&#xa;+Attribute3" style="align=left;strokeColor=none;fillColor=none;spacingLeft=4;fontSize=12;verticalAlign=top;resizable=0;rotatable=0;part=1;" vertex="1" parent="LDde4GMp7c-thHM9mIXl-26">
          <mxGeometry y="30" width="160" height="90" as="geometry"/>
        </mxCell>
        <mxCell id="LDde4GMp7c-thHM9mIXl-32" value="StatementFrequency" style="swimlane;childLayout=stackLayout;horizontal=1;startSize=30;horizontalStack=0;fillColor=#008cff;fontColor=#FFFFFF;rounded=1;fontSize=14;fontStyle=0;strokeWidth=2;resizeParent=0;resizeLast=1;shadow=0;dashed=0;align=center;" vertex="1" parent="vxTiKY2ISjZA_pXWul-K-1">
          <mxGeometry x="730" y="730" width="160" height="120" as="geometry"/>
        </mxCell>
        <mxCell id="LDde4GMp7c-thHM9mIXl-33" value="+Attribute1&#xa;+Attribute2&#xa;+Attribute3" style="align=left;strokeColor=none;fillColor=none;spacingLeft=4;fontSize=12;verticalAlign=top;resizable=0;rotatable=0;part=1;" vertex="1" parent="LDde4GMp7c-thHM9mIXl-32">
          <mxGeometry y="30" width="160" height="90" as="geometry"/>
        </mxCell>
        <mxCell id="LDde4GMp7c-thHM9mIXl-28" style="edgeStyle=orthogonalEdgeStyle;rounded=0;orthogonalLoop=1;jettySize=auto;html=1;entryX=0;entryY=0.5;entryDx=0;entryDy=0;" edge="1" parent="vxTiKY2ISjZA_pXWul-K-1" source="LDde4GMp7c-thHM9mIXl-3" target="LDde4GMp7c-thHM9mIXl-25">
          <mxGeometry relative="1" as="geometry"/>
        </mxCell>
        <mxCell id="LDde4GMp7c-thHM9mIXl-29" style="edgeStyle=orthogonalEdgeStyle;rounded=0;orthogonalLoop=1;jettySize=auto;html=1;entryX=0;entryY=0.5;entryDx=0;entryDy=0;" edge="1" parent="vxTiKY2ISjZA_pXWul-K-1" source="LDde4GMp7c-thHM9mIXl-3" target="LDde4GMp7c-thHM9mIXl-27">
          <mxGeometry relative="1" as="geometry"/>
        </mxCell>
        <mxCell id="LDde4GMp7c-thHM9mIXl-30" value="Settings" style="swimlane;childLayout=stackLayout;horizontal=1;startSize=30;horizontalStack=0;fillColor=#008cff;fontColor=#FFFFFF;rounded=1;fontSize=14;fontStyle=0;strokeWidth=2;resizeParent=0;resizeLast=1;shadow=0;dashed=0;align=center;" vertex="1" parent="vxTiKY2ISjZA_pXWul-K-1">
          <mxGeometry x="480" y="900" width="160" height="120" as="geometry"/>
        </mxCell>
        <mxCell id="LDde4GMp7c-thHM9mIXl-31" value="+Attribute1&#xa;+Attribute2&#xa;+Attribute3" style="align=left;strokeColor=none;fillColor=none;spacingLeft=4;fontSize=12;verticalAlign=top;resizable=0;rotatable=0;part=1;" vertex="1" parent="LDde4GMp7c-thHM9mIXl-30">
          <mxGeometry y="30" width="160" height="90" as="geometry"/>
        </mxCell>
        <mxCell id="LDde4GMp7c-thHM9mIXl-35" value="Address" style="swimlane;childLayout=stackLayout;horizontal=1;startSize=30;horizontalStack=0;fillColor=#008cff;fontColor=#FFFFFF;rounded=1;fontSize=14;fontStyle=0;strokeWidth=2;resizeParent=0;resizeLast=1;shadow=0;dashed=0;align=center;" vertex="1" parent="vxTiKY2ISjZA_pXWul-K-1">
          <mxGeometry x="720" y="480" width="160" height="120" as="geometry"/>
        </mxCell>
        <mxCell id="LDde4GMp7c-thHM9mIXl-36" value="+addressNo&#xa;+addressType&#xa;" style="align=left;strokeColor=none;fillColor=none;spacingLeft=4;fontSize=12;verticalAlign=top;resizable=0;rotatable=0;part=1;" vertex="1" parent="LDde4GMp7c-thHM9mIXl-35">
          <mxGeometry y="30" width="160" height="90" as="geometry"/>
        </mxCell>
        <mxCell id="LDde4GMp7c-thHM9mIXl-38" value="Tax" style="swimlane;childLayout=stackLayout;horizontal=1;startSize=30;horizontalStack=0;fillColor=#008cff;fontColor=#FFFFFF;rounded=1;fontSize=14;fontStyle=0;strokeWidth=2;resizeParent=0;resizeLast=1;shadow=0;dashed=0;align=center;" vertex="1" parent="vxTiKY2ISjZA_pXWul-K-1">
          <mxGeometry x="480" y="-140" width="160" height="120" as="geometry"/>
        </mxCell>
        <mxCell id="LDde4GMp7c-thHM9mIXl-39" value="+Attribute1&#xa;+Attribute2&#xa;+Attribute3" style="align=left;strokeColor=none;fillColor=none;spacingLeft=4;fontSize=12;verticalAlign=top;resizable=0;rotatable=0;part=1;" vertex="1" parent="LDde4GMp7c-thHM9mIXl-38">
          <mxGeometry y="30" width="160" height="90" as="geometry"/>
        </mxCell>
        <mxCell id="LDde4GMp7c-thHM9mIXl-44" value="Tax_item" style="swimlane;childLayout=stackLayout;horizontal=1;startSize=30;horizontalStack=0;fillColor=#008cff;fontColor=#FFFFFF;rounded=1;fontSize=14;fontStyle=0;strokeWidth=2;resizeParent=0;resizeLast=1;shadow=0;dashed=0;align=center;" vertex="1" parent="vxTiKY2ISjZA_pXWul-K-1">
          <mxGeometry x="730" y="-140" width="160" height="120" as="geometry"/>
        </mxCell>
        <mxCell id="LDde4GMp7c-thHM9mIXl-45" value="+Attribute1&#xa;+Attribute2&#xa;+Attribute3" style="align=left;strokeColor=none;fillColor=none;spacingLeft=4;fontSize=12;verticalAlign=top;resizable=0;rotatable=0;part=1;" vertex="1" parent="LDde4GMp7c-thHM9mIXl-44">
          <mxGeometry y="30" width="160" height="90" as="geometry"/>
        </mxCell>
        <mxCell id="LDde4GMp7c-thHM9mIXl-37" style="edgeStyle=orthogonalEdgeStyle;rounded=0;orthogonalLoop=1;jettySize=auto;html=1;" edge="1" parent="vxTiKY2ISjZA_pXWul-K-1" source="LDde4GMp7c-thHM9mIXl-10" target="LDde4GMp7c-thHM9mIXl-36">
          <mxGeometry relative="1" as="geometry"/>
        </mxCell>
        <mxCell id="LDde4GMp7c-thHM9mIXl-40" value="OpenInfo" style="swimlane;childLayout=stackLayout;horizontal=1;startSize=30;horizontalStack=0;fillColor=#008cff;fontColor=#FFFFFF;rounded=1;fontSize=14;fontStyle=0;strokeWidth=2;resizeParent=0;resizeLast=1;shadow=0;dashed=0;align=center;" vertex="1" parent="vxTiKY2ISjZA_pXWul-K-1">
          <mxGeometry x="480" y="1060" width="160" height="120" as="geometry"/>
        </mxCell>
        <mxCell id="LDde4GMp7c-thHM9mIXl-41" value="+accountManager&#xa;+teller&#xa;" style="align=left;strokeColor=none;fillColor=none;spacingLeft=4;fontSize=12;verticalAlign=top;resizable=0;rotatable=0;part=1;" vertex="1" parent="LDde4GMp7c-thHM9mIXl-40">
          <mxGeometry y="30" width="160" height="90" as="geometry"/>
        </mxCell>
        <mxCell id="LDde4GMp7c-thHM9mIXl-42" style="edgeStyle=orthogonalEdgeStyle;rounded=0;orthogonalLoop=1;jettySize=auto;html=1;entryX=0;entryY=0.5;entryDx=0;entryDy=0;" edge="1" parent="vxTiKY2ISjZA_pXWul-K-1" source="LDde4GMp7c-thHM9mIXl-3" target="LDde4GMp7c-thHM9mIXl-31">
          <mxGeometry relative="1" as="geometry"/>
        </mxCell>
        <mxCell id="LDde4GMp7c-thHM9mIXl-43" style="edgeStyle=orthogonalEdgeStyle;rounded=0;orthogonalLoop=1;jettySize=auto;html=1;entryX=-0.006;entryY=0.578;entryDx=0;entryDy=0;entryPerimeter=0;" edge="1" parent="vxTiKY2ISjZA_pXWul-K-1" source="LDde4GMp7c-thHM9mIXl-3" target="LDde4GMp7c-thHM9mIXl-41">
          <mxGeometry relative="1" as="geometry"/>
        </mxCell>
        <mxCell id="LDde4GMp7c-thHM9mIXl-48" style="edgeStyle=orthogonalEdgeStyle;rounded=0;orthogonalLoop=1;jettySize=auto;html=1;entryX=0;entryY=0.5;entryDx=0;entryDy=0;" edge="1" parent="vxTiKY2ISjZA_pXWul-K-1" source="LDde4GMp7c-thHM9mIXl-3" target="LDde4GMp7c-thHM9mIXl-21">
          <mxGeometry relative="1" as="geometry"/>
        </mxCell>
        <mxCell id="LDde4GMp7c-thHM9mIXl-49" style="edgeStyle=orthogonalEdgeStyle;rounded=0;orthogonalLoop=1;jettySize=auto;html=1;entryX=0;entryY=0.25;entryDx=0;entryDy=0;" edge="1" parent="vxTiKY2ISjZA_pXWul-K-1" source="LDde4GMp7c-thHM9mIXl-3" target="LDde4GMp7c-thHM9mIXl-39">
          <mxGeometry relative="1" as="geometry"/>
        </mxCell>
        <mxCell id="LDde4GMp7c-thHM9mIXl-51" style="edgeStyle=orthogonalEdgeStyle;rounded=0;orthogonalLoop=1;jettySize=auto;html=1;" edge="1" parent="vxTiKY2ISjZA_pXWul-K-1" source="LDde4GMp7c-thHM9mIXl-39" target="LDde4GMp7c-thHM9mIXl-45">
          <mxGeometry relative="1" as="geometry"/>
        </mxCell>
      </root>
    </mxGraphModel>
  </diagram>
</mxfile>
